<?xml version="1.0" encoding="utf-8"?><!-- Uploaded to: SVG Repo, www.svgrepo.com, Generator: SVG Repo Mixer Tools -->
<svg width="800px" height="800px" viewBox="0 0 24 24" fill="none" xmlns="http://www.w3.org/2000/svg">

    <circle cx="50%" cy="50%" r="12" fill="#FFFFFF" />
    <g>
        <path d="M 11 2 C 11 1.4 11.4 1 12 1 C 12 1 12 1 12 1 C 12.1 1 12.1 1 12.1 1 C 14.1 1 16.1 1.6 17.8 2.7 C 19.8 3.9 21.4 5.8 22.3 8 C 23.1 10.2 23.2 12.7 22.6 15 C 22 17.2 20.6 19.3 18.7 20.7 C 16.8 22.2 14.5 23 12.2 23 C 9.8 23 7.5 22.3 5.5 20.9 C 3.6 19.5 2.2 17.5 1.5 15.3 C 0.9 13.3 0.8 11.3 1.3 9.3 C 1.5 8.8 2.1 8.5 2.6 8.7 C 3.1 8.9 3.4 9.4 3.2 10 C 2.9 11.5 2.9 13.1 3.4 14.7 C 4 16.5 5.2 18.1 6.7 19.3 C 8.3 20.4 10.2 21 12.1 21 C 14.1 21 16 20.3 17.5 19.1 C 19 17.9 20.1 16.3 20.7 14.4 C 21.2 12.5 21.1 10.6 20.4 8.8 C 19.7 6.9 18.4 5.4 16.8 4.4 C 15.6 3.7 14.3 3.2 13 3.1 V 5 C 13 5.6 12.6 6 12 6 C 11.4 6 11 5.6 11 5 V 2 Z" fill="#0f0f0f"/>
        <path clip-rule="evenodd" fill="#0f0f0f" fill-rule="evenodd" d="M 5.3 3.9 C 4.9 3.7 4.4 3.7 4.1 4.1 C 3.7 4.4 3.7 4.9 3.9 5.3 L 9.3 13.4 C 9.5 13.7 9.8 14.1 10.3 14.4 C 10.6 14.6 11.2 14.9 11.8 14.9 C 12.6 14.9 13.3 14.6 13.9 13.9 C 14.6 13.3 14.9 12.6 14.9 11.8 C 14.9 11.2 14.6 10.6 14.4 10.3 C 14.1 9.8 13.7 9.5 13.4 9.3 L 5.3 3.9 Z M 11 12.3 L 8.4 8.4 L 12.3 11 C 12.5 11.1 12.6 11.2 12.7 11.3 C 12.8 11.5 12.9 11.7 12.9 11.9 C 12.9 12 12.8 12.2 12.5 12.5 C 12.2 12.8 12 12.9 11.9 12.9 C 11.7 12.9 11.5 12.8 11.3 12.7 C 11.2 12.6 11.1 12.5 11 12.3 Z"/>
    </g>
</svg>